<?xml version="1.0" standalone="no"?>
<!DOCTYPE svg PUBLIC "-//W3C//DTD SVG 20010904//EN"
 "http://www.w3.org/TR/2001/REC-SVG-20010904/DTD/svg10.dtd">
<svg version="1.0" xmlns="http://www.w3.org/2000/svg"
 width="300.000000pt" height="300.000000pt" viewBox="0 0 300.000000 300.000000"
 preserveAspectRatio="xMidYMid meet">
<metadata>
Created by potrace 1.11, written by Peter Selinger 2001-2013
</metadata>
<g transform="translate(0.000000,300.000000) scale(0.100000,-0.100000)"
fill="#000000" stroke="none">
<path d="M1435 2910 c-112 -13 -244 -46 -349 -88 -74 -29 -86 -37 -68 -43 31
-12 27 -22 -16 -53 -21 -14 -51 -39 -66 -55 -27 -28 -27 -29 -8 -35 28 -9 37
-38 17 -53 -19 -13 -12 -33 11 -33 20 0 18 -5 -19 -42 -40 -39 -51 -66 -37
-83 13 -15 -7 -55 -26 -55 -6 0 -17 -6 -23 -14 -6 -7 -33 -16 -61 -20 -37 -5
-53 -13 -68 -33 -13 -17 -35 -31 -63 -37 -37 -9 -44 -15 -47 -38 -2 -16 -7
-28 -12 -28 -4 0 -11 -16 -14 -36 -8 -37 -30 -54 -49 -35 -6 6 -19 11 -28 11
-18 0 -60 49 -73 85 -7 19 -8 19 -26 -5 -17 -23 -90 -186 -90 -201 0 -4 11
-10 24 -13 24 -6 36 -30 36 -78 0 -18 5 -28 15 -28 16 0 39 -46 30 -60 -4 -6
-92 7 -104 16 -2 2 6 19 17 37 l20 35 -38 -17 c-21 -9 -37 -18 -35 -20 3 -2 0
-12 -6 -23 -13 -25 -3 -60 11 -38 7 12 12 12 21 3 9 -9 5 -16 -19 -30 -28 -16
-32 -24 -38 -83 -4 -36 -4 -141 -1 -234 3 -94 2 -177 -3 -187 -8 -13 48 -74
285 -314 l295 -297 0 -50 0 -50 -317 312 -317 312 -18 -23 c-11 -12 -18 -28
-16 -35 2 -7 153 -166 335 -353 l333 -339 0 -59 0 -58 -354 354 c-194 194
-356 349 -359 345 -2 -5 -8 -22 -11 -39 -6 -29 10 -47 359 -395 l365 -365 0
-60 0 -60 -369 369 -369 369 -7 -41 c-3 -23 -2 -49 4 -59 5 -10 161 -169 346
-353 l335 -335 93 1 c149 1 305 56 418 145 35 27 38 28 95 19 93 -16 357 -13
457 5 178 31 342 98 497 200 97 65 303 269 367 365 71 107 104 175 91 188 -6
6 -16 21 -22 34 -7 12 -18 22 -26 20 -7 -2 -10 3 -7 12 3 7 -5 24 -19 37 -13
12 -24 26 -24 31 0 17 35 7 61 -18 l28 -26 -12 40 c-7 22 -16 44 -20 48 -4 4
-7 18 -7 32 0 14 -5 42 -12 63 -9 30 -14 36 -24 28 -16 -13 -37 -2 -30 16 3 8
-4 25 -15 38 -10 14 -19 30 -19 37 0 18 -63 2 -79 -21 -7 -10 -18 -19 -23 -19
-5 0 -24 -16 -43 -35 -26 -25 -35 -43 -35 -67 -1 -36 -35 -87 -49 -72 -19 19
-71 158 -71 186 0 25 -3 28 -14 19 -15 -13 -33 0 -63 45 -13 20 -23 23 -66 22
-29 -1 -62 2 -74 6 -31 10 -29 -4 4 -30 l27 -22 -37 -45 c-20 -24 -48 -48 -62
-51 -14 -4 -25 -11 -25 -16 0 -6 -8 -10 -18 -10 -10 0 -26 -6 -37 -14 -11 -7
-32 -16 -47 -20 -27 -6 -36 -20 -20 -29 4 -3 29 1 55 8 26 7 50 8 53 3 17 -26
-50 -133 -110 -175 -64 -46 -80 -81 -66 -146 17 -76 11 -119 -21 -134 -44 -21
-62 -48 -49 -72 12 -23 6 -39 -22 -59 -10 -7 -16 -17 -13 -22 10 -16 -63 -117
-92 -128 -40 -15 -120 -24 -127 -14 -2 4 9 49 26 98 58 167 49 394 -22 550
-15 34 -92 158 -170 274 -78 116 -139 218 -136 225 5 15 81 39 95 31 4 -3 23
-1 40 4 46 13 63 3 59 -32 -3 -27 1 -31 36 -43 21 -8 43 -18 49 -24 16 -16 37
-14 37 3 0 21 29 24 75 7 22 -8 63 -15 90 -16 48 -1 51 1 67 34 17 34 13 68
-4 37 -11 -20 -28 -21 -28 -1 0 15 -10 19 -43 15 -26 -2 -57 28 -57 57 0 13
-6 23 -14 23 -21 0 -30 -18 -17 -34 7 -9 7 -16 -1 -24 -19 -19 -36 -14 -50 15
-11 22 -62 46 -56 25 6 -15 -31 -54 -48 -50 -29 5 -29 28 1 28 34 0 31 29 -5
47 -14 7 -35 24 -46 39 -20 25 -23 26 -44 11 -12 -8 -30 -13 -41 -10 -12 3
-19 0 -19 -8 0 -8 -14 -22 -30 -31 -17 -9 -30 -25 -30 -36 0 -20 -18 -42 -36
-42 -10 0 -21 14 -79 103 l-19 29 57 -7 57 -7 0 30 c0 21 -8 36 -27 50 -26 19
-24 49 3 38 8 -3 14 -1 14 4 0 6 9 10 19 10 11 0 23 5 26 10 4 7 -3 9 -19 5
-14 -3 -38 -7 -52 -10 -26 -6 -26 -6 -20 40 5 29 4 45 -3 45 -6 0 -11 -9 -11
-20 0 -26 -45 -49 -62 -32 -9 9 -9 15 -1 23 6 6 9 17 7 24 -7 17 22 38 45 32
15 -3 17 0 13 17 -3 11 -9 27 -15 34 -13 16 -8 20 31 28 25 5 32 3 32 -10 0
-9 4 -16 10 -16 5 0 7 -7 3 -16 -6 -16 29 -72 54 -87 11 -7 11 -12 2 -23 -9
-11 -8 -14 4 -14 9 0 21 9 27 21 7 11 25 25 41 31 26 9 29 14 24 38 -4 19 -1
33 11 45 17 16 18 16 27 -6 5 -13 11 -19 13 -13 3 6 0 23 -6 39 -10 26 -11 27
-30 10 -12 -11 -26 -14 -39 -10 -17 5 -21 15 -21 47 0 37 6 47 61 102 76 76
108 111 92 102 -8 -5 -13 -1 -13 10 0 11 6 15 18 12 10 -3 23 1 31 9 7 8 25
16 41 20 16 3 31 10 33 17 6 15 117 8 117 -7 0 -7 34 -23 75 -36 72 -24 113
-50 98 -64 -3 -4 4 -7 16 -7 12 0 19 4 16 10 -7 12 12 50 25 50 6 0 10 -9 10
-20 0 -25 10 -25 52 0 23 13 56 20 106 22 70 3 71 3 50 20 -27 20 -19 34 10
19 12 -6 29 -11 39 -11 10 0 31 -7 47 -15 31 -16 47 -12 28 7 -20 20 -13 56
18 88 35 36 37 36 60 10 11 -13 21 -17 25 -10 10 16 25 12 25 -7 0 -13 3 -14
12 -5 7 7 22 12 35 12 14 0 23 6 23 15 0 17 46 39 67 31 55 -22 -82 108 -202
190 l-80 54 -42 -20 c-50 -24 -63 -25 -63 -5 0 9 9 15 21 15 11 0 27 6 34 14
26 26 -180 107 -357 141 -103 19 -297 27 -403 15z m686 -154 c-9 -11 -9 -15 0
-18 18 -6 3 -38 -18 -38 -25 0 -46 35 -30 48 28 22 64 28 48 8z m-101 -26 c0
-4 -14 -13 -31 -20 -22 -10 -33 -10 -42 -1 -6 6 -19 11 -30 11 -10 0 -16 4
-12 10 7 11 115 12 115 0z m-372 -25 c14 -14 -42 -40 -78 -36 -9 1 -4 -8 13
-22 22 -20 25 -26 13 -36 -16 -13 -51 -2 -51 17 0 23 -20 14 -35 -17 -8 -17
-20 -31 -27 -31 -13 0 -53 39 -53 52 0 4 -9 8 -21 8 -16 0 -20 5 -17 28 3 29
-5 26 143 50 45 7 99 1 113 -13z m642 -120 c0 -7 -25 -21 -56 -31 -104 -32
-170 -99 -136 -137 8 -9 12 -20 9 -23 -8 -9 -48 3 -72 21 -20 16 -20 16 -1 48
11 18 24 42 30 54 10 20 103 69 113 59 3 -2 23 4 45 14 43 19 68 17 68 -5z
m-290 -224 c0 -5 -7 -12 -16 -15 -22 -9 -24 -8 -24 9 0 8 9 15 20 15 11 0 20
-4 20 -9z m-983 -89 c18 -25 16 -30 -17 -47 -35 -18 -60 -19 -93 -4 -22 10
-51 52 -42 61 2 1 34 4 71 5 53 1 70 -2 81 -15z m-187 -266 l0 -51 -41 41 -41
41 17 33 17 32 24 -23 c19 -18 24 -32 24 -73z m0 -231 l0 -50 -89 89 -89 89
21 29 21 28 68 -67 c66 -65 68 -69 68 -118z m-37 -133 c36 -36 38 -43 35 -91
l-3 -51 -133 133 -133 133 21 27 22 27 76 -69 c43 -38 94 -87 115 -109z m589
103 c0 -14 1 -30 2 -37 1 -6 -5 -13 -11 -15 -9 -3 -13 8 -13 36 0 44 19 58 22
16z m-554 -421 l-3 -49 -177 174 c-98 96 -178 177 -178 181 0 4 10 20 21 35
l22 27 159 -159 159 -159 -3 -50z m802 296 c0 -13 -11 -13 -30 0 -12 8 -11 10
8 10 12 0 22 -4 22 -10z m-1002 -273 l203 -203 -3 -47 -3 -47 -224 224 -224
224 19 26 c11 14 21 26 24 26 3 0 97 -91 208 -203z m202 -481 l0 -49 -67 65
c-38 36 -160 158 -272 271 l-203 205 18 31 19 31 252 -252 253 -253 0 -49z
m1240 380 c0 -3 -4 -8 -10 -11 -5 -3 -10 -1 -10 4 0 6 5 11 10 11 6 0 10 -2
10 -4z m410 -61 c15 -18 6 -45 -15 -45 -10 0 -15 10 -15 30 0 33 11 38 30 15z
m-500 -453 c-24 -88 -41 -112 -68 -95 -22 13 -27 50 -12 79 7 12 10 30 7 38
-4 9 1 22 9 28 9 7 28 25 42 39 24 23 28 24 35 9 6 -11 1 -47 -13 -98z"/>
<path d="M2350 2387 c4 -41 5 -41 8 -8 2 18 0 37 -5 42 -5 5 -6 -11 -3 -34z"/>
<path d="M846 2412 c-3 -6 -1 -14 5 -17 14 -9 20 -2 10 14 -6 8 -11 9 -15 3z"/>
<path d="M1578 2263 c-10 -2 -18 -13 -18 -23 0 -11 -13 -26 -30 -35 -32 -17
-37 -34 -18 -65 10 -15 9 -22 -4 -37 -9 -10 -18 -29 -20 -43 -2 -18 -12 -27
-35 -34 -18 -5 -33 -13 -33 -18 0 -5 4 -7 9 -4 5 4 11 2 13 -3 1 -5 14 -4 28
2 14 6 34 11 45 11 13 1 24 14 35 44 9 24 22 47 30 52 10 6 8 11 -9 19 -35 19
-28 70 13 101 19 14 32 28 29 33 -4 7 -7 7 -35 0z m-62 -200 c-10 -10 -19 5
-10 18 6 11 8 11 12 0 2 -7 1 -15 -2 -18z"/>
<path d="M1635 2130 c-19 -8 -19 -9 2 -9 12 -1 25 4 28 9 7 12 -2 12 -30 0z"/>
<path d="M1980 1833 c-8 -3 -18 -10 -21 -16 -9 -13 8 -62 26 -77 10 -9 11 -18
4 -37 -7 -20 -6 -28 8 -39 29 -22 53 -17 53 10 0 14 -5 28 -12 32 -7 5 -5 11
7 21 14 10 15 13 4 13 -18 0 -53 56 -44 70 3 6 17 10 31 10 14 0 22 4 19 10
-7 11 -50 12 -75 3z"/>
<path d="M1693 1818 c-21 -34 -33 -62 -28 -67 10 -9 195 -10 195 0 0 5 -17 19
-37 32 -30 19 -42 22 -56 13 -16 -9 -22 -7 -34 12 -17 25 -28 28 -40 10z"/>
<path d="M1425 1801 c-3 -5 2 -11 10 -15 8 -3 15 -11 15 -18 1 -19 70 -50 70
-32 0 7 -13 20 -30 29 -16 9 -30 19 -30 24 0 12 -28 22 -35 12z"/>
<path d="M1970 1520 c0 -6 11 -22 25 -36 14 -14 25 -29 25 -34 0 -16 36 -12
50 5 10 12 10 15 -3 15 -8 0 -29 14 -47 30 -33 31 -50 38 -50 20z"/>
<path d="M2878 1379 c-23 -13 -23 -32 0 -52 26 -24 27 -22 27 23 0 43 -1 45
-27 29z"/>
<path d="M2765 1231 c-8 -25 4 -52 33 -77 18 -15 25 -30 26 -62 1 -48 8 -39
37 45 23 69 24 82 3 61 -16 -15 -19 -14 -50 18 -39 40 -41 40 -49 15z"/>
<path d="M124 572 c72 -204 256 -387 460 -458 36 -13 11 15 -214 241 -140 140
-256 255 -257 255 -1 0 4 -17 11 -38z"/>
</g>
</svg>
